# xmcd
#
# Track frame offsets:
#	150
#	15674
#	33870
#	54414
#	70774
#	87566
#	100876
#	113884
#	128652
#	144656
#	162040
#	178158
#	193412
#	209718
#	221301
#	240361
#	256759
#	270928
#	287622
#	304945
#
# Disc length: 4291 seconds
#
# Revision: 0
# Processed by: cddbd v1.5.1PL0 Copyright (c) Steve Scherf et al.
# Submitted via: dBpowerAMP V4.0
#
DISCID=1c10c114
DTITLE=Duduca and Dalvan - As Vinte Mais
DYEAR=1900
DGENRE=
TTITLE0=Eu Disse Não
TTITLE1=Pirâmide do Amor
TTITLE2=Amigo
TTITLE3=Mulher Maravilha
TTITLE4=Meus Pedaços
TTITLE5=Dama De Vermelho
TTITLE6=Foi Ela
TTITLE7=Eu
TTITLE8=Anistia De Amor
TTITLE9=Pra Não Dizer Que Não Falei Das Flores
TTITLE10=Super Homem
TTITLE11=Rainha Do Mundo
TTITLE12=Meu Martírio
TTITLE13=Quem Sou Eu
TTITLE14=Igrejinha Da Serra
TTITLE15=Rastros Na Areia
TTITLE16=Espinheira
TTITLE17=A Piquitita
TTITLE18=Massa Falida
TTITLE19=Utopia
EXTD=
EXTT0=
EXTT1=
EXTT2=
EXTT3=
EXTT4=
EXTT5=
EXTT6=
EXTT7=
EXTT8=
EXTT9=
EXTT10=
EXTT11=
EXTT12=
EXTT13=
EXTT14=
EXTT15=
EXTT16=
EXTT17=
EXTT18=
EXTT19=
PLAYORDER=
